<?xml version="1.0" encoding="UTF-8"?>
<svg xmlns="http://www.w3.org/2000/svg" xmlns:xlink="http://www.w3.org/1999/xlink" width="100px" height="50px" viewBox="0 0 100 50" version="1.1">
<g id="surface1">
<path style=" stroke:none;fill-rule:nonzero;fill:rgb(87.45098%,56.078431%,14.509804%);fill-opacity:1;" d="M 99.859375 0 L 99.859375 7.714844 L 26.285156 7.714844 L 35.589844 0 Z M 99.859375 0 "/>
<path style=" stroke:none;fill-rule:nonzero;fill:rgb(87.45098%,56.078431%,14.509804%);fill-opacity:1;" d="M 16.207031 0 L 0.171875 0 L 0.171875 7.714844 L 25.542969 7.714844 Z M 16.207031 0 "/>
<path style=" stroke:none;fill-rule:nonzero;fill:rgb(65.490196%,66.27451%,67.45098%);fill-opacity:1;" d="M 9.441406 10.847656 L 9.441406 30.3125 C 9.441406 30.3125 8.875 33.765625 4.4375 34.433594 L 0.101562 34.433594 L 0.101562 10.847656 "/>
<path style=" stroke:none;fill-rule:nonzero;fill:rgb(65.490196%,66.27451%,67.45098%);fill-opacity:1;" d="M 10.460938 10.847656 L 41.332031 10.847656 L 28.910156 21.074219 C 28.910156 21.074219 26.109375 23.003906 22.972656 21.074219 C 19.835938 19.148438 10.460938 10.847656 10.460938 10.847656 Z M 10.460938 10.847656 "/>
<path style=" stroke:none;fill-rule:nonzero;fill:rgb(65.490196%,66.27451%,67.45098%);fill-opacity:1;" d="M 42.246094 10.847656 L 51.699219 10.847656 L 51.699219 34.492188 L 46.960938 34.492188 C 46.960938 34.492188 42.980469 33.730469 42.414062 30.515625 C 41.851562 27.300781 42.246094 10.847656 42.246094 10.847656 Z M 42.246094 10.847656 "/>
<path style=" stroke:none;fill-rule:nonzero;fill:rgb(65.490196%,66.27451%,67.45098%);fill-opacity:1;" d="M 90.488281 10.761719 L 90.488281 26.859375 L 55.492188 26.859375 L 55.492188 30.085938 C 55.492188 30.085938 55.8125 34.4375 61.308594 34.496094 C 66.800781 34.554688 94.535156 34.496094 94.535156 34.496094 C 94.535156 34.496094 99.433594 34.320312 99.75 29.679688 C 100.070312 25.039062 99.75 10.765625 99.75 10.765625 "/>
<path style=" stroke:none;fill-rule:nonzero;fill:rgb(65.490196%,66.27451%,67.45098%);fill-opacity:1;" d="M 0.628906 47.496094 L 1.816406 47.175781 C 1.980469 47.722656 2.347656 48.214844 2.863281 48.585938 C 3.859375 49.242188 5.265625 49.273438 6.300781 48.65625 C 6.726562 48.363281 6.964844 47.925781 6.945312 47.472656 C 6.953125 47.210938 6.886719 46.949219 6.753906 46.714844 C 6.621094 46.496094 6.421875 46.3125 6.179688 46.179688 C 5.578125 45.886719 4.9375 45.648438 4.273438 45.472656 L 3.542969 45.25 C 2.589844 44.945312 1.917969 44.605469 1.527344 44.238281 C 1.128906 43.847656 0.921875 43.347656 0.945312 42.839844 C 0.917969 42.160156 1.25 41.503906 1.859375 41.046875 C 2.460938 40.589844 3.269531 40.363281 4.273438 40.363281 C 5.078125 40.34375 5.863281 40.550781 6.503906 40.949219 C 7.148438 41.386719 7.609375 41.980469 7.816406 42.644531 L 6.683594 42.917969 C 6.546875 42.425781 6.222656 41.988281 5.761719 41.660156 C 5.300781 41.363281 4.730469 41.210938 4.148438 41.226562 C 3.621094 41.207031 3.101562 41.351562 2.703125 41.636719 C 2.332031 41.925781 2.128906 42.332031 2.152344 42.753906 C 2.152344 42.964844 2.214844 43.171875 2.332031 43.355469 C 2.472656 43.566406 2.664062 43.746094 2.894531 43.890625 C 3.144531 44.050781 3.726562 44.269531 4.632812 44.539062 C 4.925781 44.625 5.148438 44.691406 5.308594 44.742188 C 6.382812 45.078125 7.128906 45.445312 7.539062 45.847656 C 7.976562 46.292969 8.195312 46.855469 8.160156 47.425781 C 8.195312 48.136719 7.84375 48.824219 7.203125 49.300781 C 6.5625 49.773438 5.710938 50.011719 4.648438 50.007812 C 3.742188 50.039062 2.847656 49.816406 2.113281 49.378906 C 1.386719 48.898438 0.867188 48.238281 0.628906 47.496094 Z M 0.628906 47.496094 "/>
<path style=" stroke:none;fill-rule:nonzero;fill:rgb(65.490196%,66.27451%,67.45098%);fill-opacity:1;" d="M 16.996094 49.84375 L 16.996094 40.511719 L 23.679688 40.511719 L 23.679688 41.394531 L 18.238281 41.394531 L 18.238281 44.511719 L 22.097656 44.511719 L 22.097656 45.375 L 18.25 45.375 L 18.25 48.953125 L 23.957031 48.953125 L 23.957031 49.84375 Z M 16.996094 49.84375 "/>
<path style=" stroke:none;fill-rule:nonzero;fill:rgb(65.490196%,66.27451%,67.45098%);fill-opacity:1;" d="M 32.542969 49.84375 L 32.542969 40.511719 L 35.71875 40.511719 C 37.304688 40.511719 38.457031 40.707031 39.175781 41.101562 C 39.894531 41.492188 40.253906 42.117188 40.253906 42.976562 C 40.28125 43.523438 40.074219 44.058594 39.667969 44.492188 C 39.203125 44.929688 38.585938 45.234375 37.902344 45.371094 L 40.566406 49.847656 L 39.183594 49.847656 L 36.691406 45.613281 L 33.777344 45.613281 L 33.777344 49.847656 Z M 35.71875 41.382812 L 33.777344 41.382812 L 33.777344 44.746094 L 35.667969 44.746094 C 36.835938 44.746094 37.679688 44.613281 38.203125 44.347656 C 38.71875 44.085938 38.980469 43.660156 38.980469 43.070312 C 38.980469 42.445312 38.75 42.003906 38.289062 41.757812 C 37.828125 41.507812 36.96875 41.382812 35.71875 41.382812 Z M 35.71875 41.382812 "/>
<path style=" stroke:none;fill-rule:nonzero;fill:rgb(65.490196%,66.27451%,67.45098%);fill-opacity:1;" d="M 51.921875 49.84375 L 48.113281 40.511719 L 49.398438 40.511719 L 52.441406 48.066406 L 52.535156 48.066406 L 55.609375 40.507812 L 56.875 40.507812 L 53.015625 49.835938 Z M 51.921875 49.84375 "/>
<path style=" stroke:none;fill-rule:nonzero;fill:rgb(65.490196%,66.27451%,67.45098%);fill-opacity:1;" d="M 65.304688 49.84375 L 65.304688 40.511719 L 66.578125 40.511719 L 66.578125 49.84375 Z M 65.304688 49.84375 "/>
<path style=" stroke:none;fill-rule:nonzero;fill:rgb(65.490196%,66.27451%,67.45098%);fill-opacity:1;" d="M 83.84375 47.046875 C 83.570312 48.027344 83.097656 48.765625 82.433594 49.261719 C 81.71875 49.769531 80.792969 50.03125 79.851562 50 C 78.457031 50 77.382812 49.582031 76.621094 48.742188 C 75.863281 47.90625 75.484375 46.714844 75.484375 45.175781 C 75.484375 43.675781 75.871094 42.5 76.636719 41.644531 C 77.347656 40.808594 78.519531 40.328125 79.757812 40.359375 C 80.808594 40.359375 81.660156 40.59375 82.3125 41.0625 C 82.96875 41.53125 83.410156 42.226562 83.644531 43.148438 L 82.503906 43.394531 C 82.386719 42.796875 82.054688 42.238281 81.554688 41.792969 C 81.109375 41.429688 80.503906 41.226562 79.871094 41.242188 C 78.933594 41.210938 78.050781 41.609375 77.566406 42.273438 C 77.027344 42.960938 76.757812 43.941406 76.761719 45.214844 C 76.761719 46.457031 77.035156 47.417969 77.578125 48.09375 C 78.074219 48.75 78.960938 49.136719 79.898438 49.109375 C 80.585938 49.128906 81.25 48.914062 81.742188 48.519531 C 82.269531 48.058594 82.609375 47.472656 82.703125 46.84375 Z M 83.84375 47.046875 "/>
<path style=" stroke:none;fill-rule:nonzero;fill:rgb(65.490196%,66.27451%,67.45098%);fill-opacity:1;" d="M 92.359375 49.84375 L 92.359375 40.511719 L 99.042969 40.511719 L 99.042969 41.394531 L 93.605469 41.394531 L 93.605469 44.511719 L 97.464844 44.511719 L 97.464844 45.375 L 93.605469 45.375 L 93.605469 48.953125 L 99.316406 48.953125 L 99.316406 49.84375 Z M 92.359375 49.84375 "/>
</g>
</svg>
