<?xml version="1.0" encoding="utf-8"?>
<!-- Generator: Adobe Illustrator 23.0.1, SVG Export Plug-In . SVG Version: 6.00 Build 0)  -->
<svg version="1.1" id="Warstwa_1" xmlns="http://www.w3.org/2000/svg" xmlns:xlink="http://www.w3.org/1999/xlink" width="100px" height="50px"
	 viewBox="0 0 100 50" style="enable-background:new 0 0 100 50;" xml:space="preserve">
<style type="text/css">
	.st0{fill:#A8AAAD;}
	.st1{fill:#DF9026;}
</style>
<g>
	<g id="szary">
		<path class="st0" d="M19.96,11.83v18.11c0,0-0.42,3.21-3.83,3.83h-3.32V11.83"/>
		<path class="st0" d="M20.74,11.83h23.64l-9.5,9.51c0,0-2.14,1.8-4.55,0C27.91,19.54,20.74,11.83,20.74,11.83z"/>
		<path class="st0" d="M45.08,11.83h7.24v21.99H48.7c0,0-3.05-0.71-3.48-3.71S45.08,11.83,45.08,11.83z"/>
		<path class="st1" d="M89.21,11.74"/>
		<path class="st0" d="M82.03,11.74v14.97h-26.8v3c0,0,0.25,4.04,4.45,4.1c4.2,0.05,25.44,0,25.44,0s3.76-0.16,3.99-4.48
			s0-17.6,0-17.6"/>
		<path class="st0" d="M13.22,45.92l0.92-0.3c0.12,0.51,0.41,0.97,0.81,1.31c0.76,0.62,1.84,0.64,2.63,0.07
			c0.32-0.26,0.51-0.67,0.49-1.09c0-0.25-0.05-0.48-0.14-0.71c-0.11-0.19-0.25-0.37-0.44-0.49c-0.46-0.26-0.95-0.49-1.47-0.65
			l-0.56-0.21c-0.72-0.28-1.25-0.6-1.54-0.94c-0.3-0.37-0.46-0.83-0.44-1.31c-0.02-0.64,0.23-1.24,0.71-1.66
			c0.46-0.42,1.08-0.64,1.85-0.64c0.62-0.02,1.22,0.18,1.71,0.55c0.49,0.41,0.85,0.95,1.01,1.57l-0.86,0.25
			c-0.11-0.46-0.35-0.86-0.71-1.17c-0.35-0.28-0.79-0.42-1.24-0.41c-0.41-0.02-0.79,0.12-1.11,0.39c-0.28,0.26-0.44,0.65-0.42,1.04
			c0,0.19,0.05,0.39,0.14,0.56c0.11,0.19,0.25,0.37,0.42,0.49c0.19,0.14,0.64,0.35,1.32,0.6c0.23,0.09,0.39,0.14,0.51,0.19
			c0.83,0.32,1.39,0.65,1.71,1.02c0.34,0.42,0.49,0.94,0.48,1.47c0.02,0.65-0.25,1.31-0.74,1.75c-0.49,0.44-1.15,0.65-1.96,0.65
			c-0.69,0.04-1.38-0.18-1.94-0.58C13.8,47.22,13.4,46.6,13.22,45.92z"/>
		<path class="st0" d="M25.75,48.1v-8.68h5.12v0.81H26.7v2.89h2.95v0.79H26.7v3.35h4.38v0.83H25.75z"/>
		<path class="st0" d="M37.65,48.1v-8.68h2.44c1.22,0,2.1,0.18,2.65,0.55c0.55,0.37,0.83,0.95,0.83,1.75
			c0.02,0.51-0.14,1.01-0.44,1.41c-0.35,0.41-0.83,0.69-1.36,0.81l2.05,4.17h-1.06l-1.91-3.94h-2.22v3.94H37.65z M40.09,40.23H38.6
			v3.12h1.45c0.9,0,1.54-0.12,1.94-0.37c0.39-0.25,0.6-0.64,0.6-1.18c0-0.58-0.18-0.99-0.53-1.22
			C41.71,40.36,41.04,40.23,40.09,40.23z"/>
		<path class="st0" d="M52.49,48.1l-2.91-8.68h0.99l2.33,7.03h0.07l2.37-7.03h0.97l-2.95,8.68H52.49z"/>
		<path class="st0" d="M62.75,48.1v-8.68h0.97v8.68H62.75z"/>
		<path class="st0" d="M76.94,45.49c-0.21,0.92-0.56,1.61-1.08,2.07c-0.55,0.48-1.25,0.72-1.98,0.69c-1.06,0-1.89-0.39-2.47-1.17
			s-0.86-1.89-0.86-3.32c0-1.39,0.3-2.49,0.88-3.28c0.55-0.78,1.45-1.22,2.38-1.2c0.81,0,1.47,0.21,1.96,0.65
			c0.49,0.44,0.85,1.08,1.02,1.94l-0.88,0.23c-0.09-0.56-0.35-1.08-0.72-1.48c-0.34-0.34-0.81-0.53-1.29-0.51
			c-0.72-0.02-1.39,0.34-1.77,0.95c-0.41,0.64-0.62,1.55-0.62,2.74c0,1.15,0.21,2.05,0.62,2.68c0.39,0.62,1.06,0.97,1.78,0.94
			c0.53,0.02,1.04-0.18,1.41-0.55c0.41-0.42,0.67-0.97,0.74-1.55L76.94,45.49z"/>
		<path class="st0" d="M83.46,48.1v-8.68h5.12v0.81h-4.17v2.89h2.95v0.79h-2.95v3.35h4.38v0.83H83.46z"/>
	</g>
	<rect x="12.81" y="1.73" class="st1" width="76.35" height="7.18"/>
</g>
</svg>
